PathFileType	4	(X/Y/Z)	C:/Users/cmwille/Documents/OptiTrack/OpenSim_Lab5_04202021/group4_jump_2.trc
DataRate	CameraRate	NumFrames	NumMarkers	Units	OrigDataRate	OrigDataStartFrame	OrigNumFrames
200	200	6	39	m	200	210	841
Frame#	Time	L.ASIS			L.Acromium			L.Ankle.Lat			L.Ankle.Med			L.Heel			L.Knee.Lat			L.Knee.Med			L.Midfoot.Lat			L.Midfoot.Sup			L.Shank.Front			L.Shank.Rear			L.Shank.Upper			L.Thigh.Front			L.Thigh.Rear			L.Thigh.Upper			L.Toe.Lat			L.Toe.Med			L.Toe.Tip			R.ASIS			R.Acromium			R.Ankle.Lat			R.Ankle.Med			R.Heel			R.Knee.Lat			R.Knee.Med			R.Midfoot.Lat			R.Midfoot.Sup			R.Shank.Front			R.Shank.Rear			R.Shank.Upper			R.Thigh.Front			R.Thigh.Rear			R.Thigh.Upper			R.Toe.Lat			R.Toe.Med			R.Toe.Tip			Sternum			Top.Head			V.Sacral			
		X1	Y1	Z1	X2	Y2	Z2	X3	Y3	Z3	X4	Y4	Z4	X5	Y5	Z5	X6	Y6	Z6	X7	Y7	Z7	X8	Y8	Z8	X9	Y9	Z9	X10	Y10	Z10	X11	Y11	Z11	X12	Y12	Z12	X13	Y13	Z13	X14	Y14	Z14	X15	Y15	Z15	X16	Y16	Z16	X17	Y17	Z17	X18	Y18	Z18	X19	Y19	Z19	X20	Y20	Z20	X21	Y21	Z21	X22	Y22	Z22	X23	Y23	Z23	X24	Y24	Z24	X25	Y25	Z25	X26	Y26	Z26	X27	Y27	Z27	X28	Y28	Z28	X29	Y29	Z29	X30	Y30	Z30	X31	Y31	Z31	X32	Y32	Z32	X33	Y33	Z33	X34	Y34	Z34	X35	Y35	Z35	X36	Y36	Z36	X37	Y37	Z37	X38	Y38	Z38	X39	Y39	Z39
210	1.05	0.384562	1.0332	2.31802	0.460278	1.52172	2.18644	0.488667	0.119952	2.12355	0.380752	0.123044	2.14566	0.428454	0.071978	2.04627	0.456515	0.53052	2.21403	0.332655	0.506039	2.22183	0.515943	0.0446912	2.1688	0.386187	0.0426371	2.20501	0.414341	0.444849	2.24108	0.467083	0.36723	2.20635	0.467113	0.48058	2.18203	0.478835	0.704236	2.23948	0.410051	0.620448	2.10596	0.412713	0.700546	2.10642	0.521932	0.0583254	2.27661	0.391979	0.0511331	2.28422	0.449823	0.0685234	2.34618	0.0727667	1.06053	2.25845	0.0550077	1.51437	2.18279	-0.038463	0.131714	2.12933	0.0682495	0.133078	2.16158	0.0215981	0.0719866	2.05328	0.00915691	0.535	2.21173	0.133353	0.526738	2.22654	-0.0810289	0.00280285	2.15799	0.0580602	0.0457974	2.21225	0.0536394	0.467898	2.23579	0.0107308	0.381556	2.22079	-0.00180961	0.486612	2.18456	0.00647696	0.724704	2.27509	0.0187629	0.635506	2.12851	0.0267775	0.710738	2.12104	-0.0905646	0.040821	2.25565	0.0440637	0.0490018	2.28686	-0.0175349	0.0714191	2.3577	0.25402	1.35579	2.36631	0.110946	1.83367	2.37245	0.252157	1.07933	2.11906
211	1.055	0.384524	1.03318	2.31804	0.460276	1.52177	2.18651	0.488668	0.11994	2.12355	0.380767	0.123051	2.14566	0.428459	0.0719881	2.04626	0.456503	0.530516	2.21405	0.332651	0.506042	2.22183	0.516049	0.0448834	2.16885	0.386185	0.0426358	2.205	0.414326	0.444853	2.24108	0.467067	0.36721	2.20637	0.467115	0.480566	2.18204	0.478795	0.704184	2.23951	0.410145	0.620512	2.10594	0.412752	0.700556	2.10642	0.521933	0.0583257	2.2766	0.391989	0.05112	2.28422	0.449826	0.0685204	2.34618	0.0727605	1.06053	2.25834	0.0550067	1.51434	2.18263	-0.03846	0.131698	2.12932	0.0682533	0.133078	2.16158	0.0216397	0.0720043	2.0533	0.00914859	0.535	2.21167	0.133345	0.52673	2.22651	-0.0809593	0.00300694	2.15805	0.0580616	0.0457974	2.21224	0.0536339	0.467903	2.23576	0.0107277	0.381552	2.22076	-0.00181115	0.486625	2.18451	0.00645212	0.724725	2.27501	0.0187848	0.635488	2.12846	0.0267933	0.710719	2.12097	-0.0905545	0.0408031	2.25564	0.044077	0.0490067	2.28686	-0.0175288	0.0714106	2.35769	0.253959	1.35577	2.36624	0.110882	1.83371	2.37251	0.252223	1.07932	2.11902
212	1.06	0.384483	1.03319	2.31807	0.460266	1.5218	2.18657	0.488661	0.119928	2.12353	0.380757	0.123038	2.14567	0.428476	0.0719815	2.04626	0.456501	0.530524	2.21406	0.332628	0.506008	2.22177	0.51595	0.0446906	2.16879	0.386189	0.0426442	2.205	0.414314	0.444874	2.2411	0.467067	0.367222	2.20638	0.467126	0.480588	2.18205	0.478749	0.704147	2.23954	0.410175	0.620523	2.10594	0.412786	0.700567	2.10642	0.521934	0.0583225	2.2766	0.391989	0.0511286	2.28422	0.449835	0.0685157	2.34618	0.0727601	1.06057	2.25828	0.0550119	1.5143	2.18244	-0.0384609	0.131712	2.1293	0.0682441	0.133076	2.16157	0.0215946	0.0719636	2.05327	0.00914618	0.534995	2.21161	0.133346	0.526729	2.22646	-0.0808907	0.00321102	2.15811	0.0580715	0.0458045	2.21224	0.0536242	0.467924	2.23572	0.0107238	0.381564	2.22072	-0.00179654	0.486627	2.18448	0.00643401	0.724732	2.27493	0.0188198	0.635485	2.12838	0.0268199	0.710702	2.12085	-0.0905634	0.0407921	2.25563	0.0440795	0.0489955	2.28687	-0.0175291	0.0714166	2.35769	0.253893	1.35575	2.36618	0.110844	1.83375	2.37261	0.252235	1.07932	2.119
213	1.065	0.384449	1.0332	2.31807	0.460241	1.52183	2.18662	0.488674	0.119937	2.12354	0.380767	0.123059	2.14567	0.428475	0.0719897	2.04626	0.456497	0.530525	2.21407	0.332629	0.506068	2.22179	0.51604	0.0448923	2.16886	0.386189	0.0426531	2.20501	0.414295	0.444869	2.24109	0.46706	0.367242	2.20639	0.467126	0.48058	2.18205	0.478706	0.704094	2.23958	0.410211	0.620531	2.10595	0.412847	0.700601	2.10642	0.521924	0.0583274	2.27661	0.391989	0.0511092	2.28422	0.449832	0.0685281	2.34617	0.072742	1.06056	2.25815	0.0548371	1.51415	2.18197	-0.03846	0.131706	2.1293	0.0682445	0.133069	2.16156	0.0216082	0.0719601	2.05326	0.00914425	0.53501	2.21155	0.133343	0.52671	2.22641	-0.080822	0.00341415	2.15817	0.0580757	0.0458065	2.21223	0.0536217	0.46794	2.23568	0.0107148	0.38159	2.22068	-0.00184043	0.486699	2.18441	0.00642109	0.724744	2.27485	0.018843	0.635482	2.12831	0.0268384	0.710695	2.12077	-0.0905583	0.0407841	2.25563	0.0440846	0.0489991	2.28686	-0.0175274	0.0714186	2.35769	0.253824	1.35573	2.36611	0.110843	1.8338	2.37272	0.252289	1.07931	2.11898
214	1.07	0.384411	1.03321	2.3181	0.460205	1.52185	2.18666	0.488678	0.119947	2.12356	0.380767	0.123032	2.14566	0.428472	0.0720031	2.04627	0.456497	0.530535	2.21408	0.332612	0.506043	2.22175	0.515941	0.0446873	2.16879	0.386193	0.0426501	2.20501	0.414273	0.444895	2.24112	0.467063	0.367258	2.2064	0.467128	0.480598	2.18207	0.478657	0.70404	2.2396	0.410238	0.620535	2.10596	0.412874	0.700581	2.10644	0.52191	0.0583403	2.27661	0.39199	0.051119	2.28422	0.449822	0.0685154	2.34617	0.0727387	1.06058	2.25808	0.0548357	1.5141	2.18179	-0.0384556	0.131697	2.12929	0.068245	0.133074	2.16156	0.0215888	0.0719441	2.05327	0.00914318	0.535011	2.21148	0.133322	0.5267	2.22636	-0.0807533	0.00361824	2.15823	0.0580729	0.0458166	2.21225	0.0536086	0.467954	2.23565	0.0107033	0.381596	2.22065	-0.00183466	0.486703	2.18436	0.00640181	0.724757	2.27477	0.0188604	0.635466	2.12823	0.0268737	0.710686	2.12068	-0.0905587	0.0407746	2.25564	0.0440793	0.0489977	2.28686	-0.0175347	0.0714353	2.35768	0.253745	1.35572	2.36604	0.110852	1.83385	2.37289	0.252739	1.0795	2.119
215	1.075	0.384341	1.03326	2.31811	0.460164	1.52186	2.18667	0.488656	0.119909	2.12354	0.380757	0.123042	2.14566	0.428458	0.0720024	2.04627	0.456492	0.530533	2.2141	0.332597	0.506013	2.22173	0.515937	0.0447057	2.1688	0.386195	0.0426477	2.20501	0.414252	0.444902	2.24112	0.46706	0.367257	2.20641	0.467112	0.480606	2.18209	0.478634	0.704004	2.23964	0.410274	0.620575	2.10599	0.412918	0.700574	2.10646	0.521915	0.0583373	2.2766	0.391985	0.0511149	2.28422	0.449822	0.0685269	2.34618	0.0727289	1.06056	2.25795	0.0549688	1.51419	2.18194	-0.0384386	0.131687	2.12928	0.0682357	0.133089	2.16156	0.021602	0.0719359	2.05326	0.0091452	0.534993	2.21138	0.133318	0.5267	2.22632	-0.0806837	0.00382233	2.15829	0.058068	0.0458134	2.21224	0.053598	0.467943	2.23559	0.0106965	0.381593	2.22059	-0.00184303	0.486707	2.18428	0.00637036	0.724762	2.27467	0.0188808	0.635456	2.12815	0.0269054	0.710676	2.12058	-0.0905555	0.04079	2.25564	0.0440824	0.0489904	2.28685	-0.0175245	0.0714441	2.35768	0.253664	1.3557	2.36598	0.110893	1.8339	2.37305	0.252357	1.07931	2.11893
